<?xml version="1.0"?>
<svg width="960" height="960" xmlns="http://www.w3.org/2000/svg" xmlns:svg="http://www.w3.org/2000/svg">
 <g class="layer">
  <title>Layer 1</title>
  <path d="m331.54,660.46l148.46,-148.46l148.46,148.46l32,-32l-148.46,-148.46l148.46,-148.46l-32,-32l-148.46,148.46l-148.46,-148.46l-32,32l148.46,148.46l-148.46,148.46l32,32zm148.53,199.54q-78.22,0 -147.4,-29.92q-69.18,-29.92 -120.99,-81.71q-51.81,-51.79 -81.75,-120.94q-29.93,-69.14 -29.93,-147.36q0,-78.84 29.92,-148.21q29.92,-69.37 81.71,-120.68q51.79,-51.31 120.94,-81.25q69.14,-29.93 147.36,-29.93q78.84,0 148.21,29.92q69.37,29.92 120.68,81.21q51.31,51.29 81.25,120.63q29.93,69.34 29.93,148.17q0,78.22 -29.92,147.4q-29.92,69.18 -81.21,120.99q-51.29,51.81 -120.63,81.75q-69.34,29.93 -148.17,29.93z" fill="#ba2525" id="svg_1"/>
 </g>
</svg>